<?xml version="1.0" encoding="UTF-8"?>
<svg id="Layer_1" data-name="Layer 1" xmlns="http://www.w3.org/2000/svg" viewBox="0 0 1799.36 599.92">
  <defs>
    <style>
      .cls-1 {
        fill-rule: evenodd;
      }

      .cls-1, .cls-2 {
        fill: #8c1515;
      }
    </style>
  </defs>
  <g>
    <path class="cls-2" d="M0,322.01V48.04h38.59v273.97H0ZM73.32,210.11l-29.71-113.45h-11.19v-48.62h27.4l29.71,117.69h1.54l3.86,44.38h-21.61ZM84.51,210.11l5.79-44.38h2.32l29.71-117.69h27.4v48.62h-11.19l-29.71,113.45h-24.31ZM143.55,322.01V48.04h38.59v273.97h-38.59Z"/>
    <path class="cls-2" d="M302.53,325.87c-21.48,0-38.11-6.4-49.88-19.2-11.77-12.8-17.65-30.84-17.65-54.12V117.49h40.9v135.06c0,11.71,3.34,20.74,10.03,27.11,6.69,6.37,16.08,9.55,28.17,9.55,14.92,0,26.17-4.73,33.76-14.18,7.59-9.45,11.38-25.31,11.38-47.56l10.42,55.18h-13.51c-3.22,13.89-9.52,24.57-18.91,32.03-9.39,7.46-20.97,11.19-34.73,11.19ZM359.25,264.13V117.49h40.9v135.06l-40.9,11.58ZM362.73,323.94l-3.47-49.01v-35.89h40.9v45.92l28.17,4.24v32.8l-65.6,1.93Z"/>
    <path class="cls-2" d="M683.39,153.38v-35.89h185.22v35.89h-185.22ZM734.72,225.54V55.75h40.9v169.79h-40.9ZM822.7,325.87c-31,0-53.41-6.43-67.24-19.29-13.83-12.86-20.74-33.44-20.74-61.74v-34.73h40.9v32.8c0,16.21,3.96,27.98,11.87,35.31,7.91,7.33,20.93,11,39.07,11,6.43,0,13.25-.35,20.45-1.06,7.2-.71,15.44-1.64,24.7-2.8l4.63,35.89c-9.01,1.54-17.78,2.7-26.34,3.47-8.56.77-17.65,1.16-27.3,1.16Z"/>
    <path class="cls-2" d="M932.29,322.01v-35.89h81.81v35.89h-81.81ZM943.86,153.38v-35.89h107.27v35.89h-107.27ZM1029.33,85.08c-7.85,0-14.57-2.8-20.16-8.39-5.6-5.6-8.39-12.32-8.39-20.16s2.8-14.73,8.39-20.26c5.59-5.53,12.31-8.3,20.16-8.3s14.73,2.77,20.26,8.3c5.53,5.53,8.3,12.28,8.3,20.26s-2.77,14.57-8.3,20.16c-5.53,5.59-12.28,8.39-20.26,8.39ZM1010.23,322.01v-192.94h40.9v192.94h-40.9ZM1047.28,322.01v-35.89h66.76v35.89h-66.76Z"/>
  </g>
  <g>
    <path class="cls-2" d="M0,596.06v-273.97h38.59v273.97H0ZM73.32,484.16l-29.71-113.45h-11.19v-48.62h27.4l29.71,117.69h1.54l3.86,44.38h-21.61ZM84.51,484.16l5.79-44.38h2.32l29.71-117.69h27.4v48.62h-11.19l-29.71,113.45h-24.31ZM143.55,596.06v-273.97h38.59v273.97h-38.59Z"/>
    <path class="cls-2" d="M322.6,599.92c-28.3,0-50.29-9.26-65.99-27.78-15.69-18.52-23.54-44.63-23.54-78.33s7.84-59.97,23.54-78.43c15.69-18.46,37.69-27.69,65.99-27.69s50.45,9.23,66.08,27.69c15.63,18.46,23.44,44.6,23.44,78.43s-7.81,59.81-23.44,78.33c-15.63,18.52-37.66,27.78-66.08,27.78ZM322.6,563.26c15.05,0,26.66-6.05,34.83-18.14,8.17-12.09,12.25-29.2,12.25-51.32s-4.08-39.39-12.25-51.42c-8.17-12.03-19.78-18.04-34.83-18.04s-26.66,6.01-34.83,18.04c-8.17,12.03-12.25,29.17-12.25,51.42s4.08,39.23,12.25,51.32c8.17,12.09,19.78,18.14,34.83,18.14Z"/>
    <path class="cls-2" d="M803.4,599.92c-34.86,0-61.77-9.16-80.75-27.49-18.97-18.33-28.46-44.67-28.46-79.01s8.04-59.43,24.12-77.95c16.08-18.52,38.78-27.78,68.11-27.78,27.65,0,49.04,8.36,64.15,25.08,15.11,16.72,22.67,41.03,22.67,72.93,0,9.39-.39,18.14-1.16,26.24h-143.55v-31.26h107.66c0-18.39-4.37-32.51-13.12-42.35-8.75-9.84-20.84-14.76-36.27-14.76-17.36,0-30.84,5.92-40.42,17.75-9.58,11.84-14.37,28.56-14.37,50.16,0,23.67,6.59,41.68,19.78,54.02,13.18,12.35,31.93,18.52,56.24,18.52,8.49,0,16.85-.48,25.08-1.45,8.23-.97,16.59-2.28,25.08-3.96l5.02,35.89c-12.09,2.32-23.15,3.79-33.19,4.44-10.03.64-18.91.96-26.63.96Z"/>
    <path class="cls-2" d="M1036.86,599.92c-34.86,0-61.77-9.16-80.75-27.49-18.97-18.33-28.46-44.67-28.46-79.01s8.97-59.43,26.91-77.95c17.94-18.52,43.57-27.78,76.89-27.78,19.94,0,37.01,3.7,51.23,11.09,14.21,7.4,24.34,17.85,30.39,31.35l-31.45,23.73c-5.79-9.39-13.19-16.66-22.19-21.8-9-5.14-18.84-7.72-29.52-7.72-19.29,0-34.28,5.82-44.95,17.46-10.68,11.64-16.01,28.2-16.01,49.68,0,23.28,6.27,41.07,18.81,53.35,12.54,12.28,30.45,18.43,53.73,18.43,9.52,0,19.04-.45,28.56-1.35,9.52-.9,18.78-2.12,27.78-3.67l4.63,35.89c-10.55,2.32-21.45,3.86-32.7,4.63-11.26.77-22.22,1.16-32.9,1.16Z"/>
    <path class="cls-2" d="M1228.64,599.92c-21.48,0-38.11-6.4-49.88-19.2-11.77-12.8-17.65-30.84-17.65-54.12v-135.06h40.9v135.06c0,11.71,3.34,20.74,10.03,27.11,6.69,6.37,16.08,9.55,28.17,9.55,14.92,0,26.17-4.73,33.76-14.18,7.59-9.45,11.38-25.31,11.38-47.56l10.42,55.18h-13.51c-3.22,13.89-9.52,24.57-18.91,32.03-9.39,7.46-20.97,11.19-34.73,11.19ZM1285.37,538.18v-146.63h40.9v135.06l-40.9,11.58ZM1288.84,597.99l-3.47-49.01v-35.89h40.9v45.92l28.17,4.24v32.8l-65.6,1.93Z"/>
    <path class="cls-2" d="M1383.38,342.54v-35.89h63.67v35.89h-63.67ZM1510.72,599.92c-23.67,0-40.78-6.43-51.32-19.29-10.55-12.86-15.82-33.44-15.82-61.74v-212.23h40.9v210.3c0,10.8,1.03,19.62,3.09,26.43,2.06,6.82,6.08,11.84,12.06,15.05,5.98,3.22,14.82,4.82,26.53,4.82,10.67,0,24.31-2.44,40.9-7.33l4.63,35.89c-10.42,2.83-20.42,4.89-30,6.17-9.58,1.28-19.91,1.93-30.97,1.93Z"/>
    <path class="cls-2" d="M1729.51,599.92c-34.86,0-61.77-9.16-80.75-27.49-18.97-18.33-28.46-44.67-28.46-79.01s8.04-59.43,24.12-77.95c16.08-18.52,38.78-27.78,68.11-27.78,27.65,0,49.04,8.36,64.15,25.08,15.11,16.72,22.67,41.03,22.67,72.93,0,9.39-.39,18.14-1.16,26.24h-143.55v-31.26h107.66c0-18.39-4.37-32.51-13.12-42.35-8.75-9.84-20.84-14.76-36.27-14.76-17.36,0-30.84,5.92-40.42,17.75-9.58,11.84-14.37,28.56-14.37,50.16,0,23.67,6.59,41.68,19.78,54.02,13.18,12.35,31.93,18.52,56.24,18.52,8.49,0,16.85-.48,25.08-1.45,8.23-.97,16.59-2.28,25.08-3.96l5.02,35.89c-12.09,2.32-23.15,3.79-33.19,4.44-10.03.64-18.91.96-26.63.96Z"/>
  </g>
  <path class="cls-1" d="M596.63,192.29c5.37-66.44,15.21-84.54,31.47-98.07l2.45-2.03-6.71-44.2-5.64.92c-7.38,1.21-14.28,6.85-19.68,12.97l-.06-32.71L549.08,0l.03,24.58c-3.79-3.64-7.1-6.41-8.55-7.48-5-3.69-9.45-5.4-13.98-5.4-2.68,0-5.02.6-7.08,1.13-3.51.93-5.91,1.67-11.06-.53-22.4-4.52-39.75.47-49.34,14.01-9,12.71-10.44,32.35-3.77,51.25,4.28,12.15,12.12,26.05,23.27,41.29,4.5,6.18,43.81,47.61,52.51,56.49,5.76,5.87,11.91,11.68,18.2,17.45v15.07s-9.89-6.73-9.89-6.73l-13.11,30.34,4.11,2.56c9.1,5.67,18.64,21.45,25.22,104.38-23.8,9.87-54.2,37.98-55.04,66.87-.4,13.84,6.14,33.06,40.24,46.42,6.55,2.55,13.65,5.32,20.7,8.2.43,15.76.83,32.69,1.16,50.79-6.82,3.08-18.09,10.08-20.26,20.05-1.93,8.96,3.57,17.65,16.37,25.85,1.47.96,3.03,1.54,4.6,2.13.05,5.03.09,10.35.15,15.56-5.35,2.63-8.19,4.58-12.34,9.31-2.3,2.61-4.44,5.42-3.22,8.09.32.68,1.33,2.33,3.95,2.33,1.78,0,4.34-.75,9.14-2.69,1.26-.51,2.33-.9,3.23-1.19,2.44,5.94,7.82,9.75,13.98,9.75,6.6,0,12.03-4.41,13.49-11.04l.14-.62v-.63c-.03-2.26-.03-4.38-.05-6.62,4.7-3.17,7.54-8.11,7.78-13.96.27-6.68-2.84-13.16-8-18.04-.05-7.49-.08-14.58-.13-21.82,21.86-5.08,44.32-19.32,46.44-38.23,1.31-11.77-4.98-28.97-42.46-44.12-1.48-.6-2.85-1.17-4.29-1.77-.04-31.63.03-60.19.22-86.11,38.84-19.69,65.32-38.13,68.71-62.8,3.53-25.72-17.56-56.16-63.52-101.79h0ZM538.21,137.42c-60.69-55.02-63.26-80.12-59.37-90.18,4.52-11.73,20.08-12.12,23.24-11.35,1.91.42,2.01.79,2.61,3.24.95,3.89,2.38,9.78,14.04,13.62,12.97,4.29,22.92,6.69,30.43,7.4l.09,87.34c-3.62-3.31-7.23-6.61-11.05-10.07h0ZM610.73,490.4c-.13,2.47-3.03,7.23-19.32,12.64-.05-10.16-.08-20.13-.12-29.75,11.63,6.09,19.7,12.07,19.45,17.11h0ZM587.17,35.63l.05,24.68-13.75-3.66-7.15-3.65c.83-4.5-1.88-10.17-5.91-15.71l-.02-17.5,26.78,15.85h0ZM531.35,406.12c-.93-7.68,7.19-17.58,26.68-32.4.95,16.56,1.8,35.2,2.54,56.04-17.04-8.15-28.26-15.79-29.23-23.64h0ZM572.97,464.68c2.38,1.02,4.73,2.06,7.02,3.13.06,23.15.18,47.74.35,74.01-1.95-1.07-4.16-2.56-5.92-4.36-.37-26.49-.87-50.69-1.45-72.78h0ZM574.98,586.4c-.07-8.41-.16-16.55-.25-24.58,2.48.66,4.41,1.5,5.76,2.97.05,7.34.1,14.53.16,22.07-.76,2.19-3.9,2.81-5.67-.47h0ZM579.92,438.35c-2.68-1.13-5.33-2.24-7.86-3.36-5.91-173.56-18.95-198.34-31.6-207.82l3.91-9.05,16.26,11.02-.03-26.16c1.96,1.75,3.92,3.55,5.86,5.3,5.76,5.13,11.45,10.21,16.92,15.25-2.54,49.31-3.54,117.94-3.45,214.83h0ZM586.27,182.17c-7.93-7.65-16.51-15.74-25.72-24.26l-.12-98.5c1.03-.36,1.91-.84,2.68-1.41l7.06,3.43,9.55,15.25,2.97-.94-.59-9.68,5.12-1.04.03,14.89,10.71,2.47c2.68-5.44,9.67-15.4,16.64-20l3.85,25.27c-16.39,14.5-26.45,33.67-32.18,94.52h0ZM626.7,289.65c-2.04,12.47-13.56,23.52-34.92,33.71.47-35.32,1.22-64.92,2.34-89.69,20.57,20.03,35.37,38.96,32.58,55.99h0ZM522.92,37.89c-.96-.5-2.02-.77-3.08-.77-1.8,0-3.31.78-4.01,2.1-1.2,2.23,0,5.1,2.81,6.66,1.02.56,2.12.84,3.19.84,1.75,0,3.19-.79,3.97-2.23,1.09-2.22-.18-5.13-2.88-6.6h0ZM532.81,20.65c-1.16-1.1-2.7-1.73-4.23-1.73-1.22,0-2.25.41-2.88,1.12-.74.75-1.15,1.78-1.13,2.93.03,1.49.81,3.11,2.09,4.27,1.21,1.14,2.72,1.78,4.17,1.78,1.2,0,2.27-.43,3.01-1.24.74-.78,1.11-1.84,1.06-2.97-.06-1.5-.83-3.01-2.09-4.17h0Z"/>
</svg>